<?xml version="1.0" encoding="iso-8859-1"?>
<!-- Generator: Adobe Illustrator 19.0.0, SVG Export Plug-In . SVG Version: 6.00 Build 0)  -->
<svg version="1.1" id="Layer_1" xmlns="http://www.w3.org/2000/svg" xmlns:xlink="http://www.w3.org/1999/xlink" x="0px" y="0px"
	 viewBox="0 0 512 512" style="enable-background:new 0 0 512 512;" xml:space="preserve">
<g>
	<g>
		<path d="M500.736,349.163c-0.171-0.64-0.213-1.301-0.512-1.92l-94.891-189.781V32c0-17.643-14.357-32-32-32H138.667
			c-17.643,0-32,14.357-32,32v125.44L11.776,347.221c-0.32,0.64-0.341,1.301-0.533,1.963C4.416,355.051,0,363.648,0,373.333v85.333
			v42.667C0,507.221,4.779,512,10.667,512h42.667C59.221,512,64,507.221,64,501.333v-32h384v32c0,5.888,4.779,10.667,10.667,10.667
			h42.667c5.888,0,10.667-4.779,10.667-10.667v-42.667v-85.333C512,363.648,507.584,355.051,500.736,349.163z M128,32
			c0-5.888,4.8-10.667,10.667-10.667h234.667C379.2,21.333,384,26.112,384,32v117.333h-31.808l-4.224-21.141
			c-4.949-24.853-26.944-42.88-52.288-42.88h-79.381c-25.344,0-47.339,18.027-52.288,42.88l-4.224,21.141H128V32z M324.693,180.288
			C318.592,187.733,309.568,192,299.947,192h-87.915c-9.621,0-18.603-4.267-24.725-11.712c-6.123-7.445-8.533-17.131-6.635-26.56
			l4.267-21.333c2.987-14.912,16.171-25.728,31.381-25.728h79.36c15.211,0,28.395,10.816,31.381,25.728l4.267,21.333
			C333.205,163.157,330.795,172.843,324.693,180.288z M123.925,170.667h36.053c1.707,8.363,5.248,16.32,10.816,23.125
			c10.176,12.437,25.216,19.541,41.259,19.541h87.915c16.043,0,31.083-7.104,41.216-19.541c5.568-6.805,9.109-14.763,10.816-23.125
			h36.075l85.333,170.667H38.592L123.925,170.667z M42.667,490.667H21.333v-21.333h21.333V490.667z M490.667,490.667h-21.333
			v-21.333h21.333V490.667z M490.667,448H21.333v-74.667c0-5.888,4.8-10.667,10.667-10.667h448c5.867,0,10.667,4.779,10.667,10.667
			V448z"/>
	</g>
</g>
<g>
</g>
<g>
</g>
<g>
</g>
<g>
</g>
<g>
</g>
<g>
</g>
<g>
</g>
<g>
</g>
<g>
</g>
<g>
</g>
<g>
</g>
<g>
</g>
<g>
</g>
<g>
</g>
<g>
</g>
</svg>
