<svg xmlns="http://www.w3.org/2000/svg" width="24" height="24" viewBox="0 0 24 24">
  <g id="그룹_26" data-name="그룹 26" transform="translate(-982 -420)">
    <rect id="사각형_2" data-name="사각형 2" width="24" height="24" transform="translate(982 420)" fill="none"/>
    <g id="_001-diamond" data-name="001-diamond" transform="translate(983.652 423.468)">
      <g id="그룹_11" data-name="그룹 11" transform="translate(0 0)">
        <g id="그룹_10" data-name="그룹 10">
          <path id="패스_3" data-name="패스 3" d="M20.072,38.3l-3.358-4.03a.336.336,0,0,0-.258-.121H3.694a.335.335,0,0,0-.258.121L.077,38.3a.336.336,0,0,0,.258.551H19.814a.336.336,0,0,0,.258-.551Zm-19.02-.121,2.8-3.358H16.3l2.8,3.358Z" transform="translate(0.001 -34.146)" fill="#222"/>
        </g>
      </g>
      <g id="그룹_13" data-name="그룹 13" transform="translate(3.359)">
        <g id="그룹_12" data-name="그룹 12">
          <path id="패스_4" data-name="패스 4" d="M92.37,34.344a.336.336,0,0,0-.31-.207H85.679a.336.336,0,0,0-.29.505l2.351,4.03a.336.336,0,0,0,.247.164l.043,0a.336.336,0,0,0,.238-.1l4.03-4.03A.336.336,0,0,0,92.37,34.344ZM88.1,37.958l-1.837-3.149h4.986Z" transform="translate(-85.343 -34.137)" fill="#222"/>
        </g>
      </g>
      <g id="그룹_15" data-name="그룹 15" transform="translate(0 4.03)">
        <g id="그룹_14" data-name="그룹 14">
          <path id="패스_5" data-name="패스 5" d="M20.118,136.715a.336.336,0,0,0-.3-.187H.338a.336.336,0,0,0-.267.54L9.811,149.83a.335.335,0,0,0,.533,0l9.739-12.762A.336.336,0,0,0,20.118,136.715Zm-10.04,12.358L1.017,137.2H19.138Z" transform="translate(-0.002 -136.528)" fill="#222"/>
        </g>
      </g>
      <g id="그룹_17" data-name="그룹 17" transform="translate(0 4.03)">
        <g id="그룹_16" data-name="그룹 16">
          <path id="패스_6" data-name="패스 6" d="M10.406,149.525l-4.03-12.762a.336.336,0,0,0-.32-.235H.346a.336.336,0,0,0-.267.54L9.819,149.83a.335.335,0,0,0,.267.132.327.327,0,0,0,.154-.038A.336.336,0,0,0,10.406,149.525ZM1.025,137.2H5.809l3.377,10.695Z" transform="translate(-0.01 -136.528)" fill="#222"/>
        </g>
      </g>
      <g id="그룹_19" data-name="그룹 19" transform="translate(9.74)">
        <g id="그룹_18" data-name="그룹 18">
          <path id="패스_7" data-name="패스 7" d="M254.478,34.306a.335.335,0,0,0-.291-.169h-6.381a.336.336,0,0,0-.237.573l4.03,4.03a.335.335,0,0,0,.237.1l.043,0a.336.336,0,0,0,.247-.164l2.351-4.03A.336.336,0,0,0,254.478,34.306Zm-2.713,3.652-3.149-3.149H253.6Z" transform="translate(-247.47 -34.137)" fill="#222"/>
        </g>
      </g>
      <g id="그룹_21" data-name="그룹 21" transform="translate(9.74 4.03)">
        <g id="그룹_20" data-name="그룹 20">
          <path id="패스_8" data-name="패스 8" d="M257.852,136.733a.336.336,0,0,0-.3-.187h-5.709a.336.336,0,0,0-.32.235l-4.03,12.762a.336.336,0,0,0,.587.3l9.739-12.762A.336.336,0,0,0,257.852,136.733Zm-9.142,11.179,3.377-10.695h4.784Z" transform="translate(-247.476 -136.546)" fill="#222"/>
        </g>
      </g>
    </g>
  </g>
</svg>
