<svg xmlns="http://www.w3.org/2000/svg" width="24" height="24" viewBox="0 0 24 24">
  <g id="그룹_1521" data-name="그룹 1521" transform="translate(-2456 760)">
    <rect id="사각형_1133" data-name="사각형 1133" width="24" height="24" transform="translate(2456 -760)" fill="none"/>
    <g id="사각형_1134" data-name="사각형 1134" transform="translate(2460 -756)" fill="none" stroke="#222" stroke-width="1">
      <rect width="17" height="17" rx="1" stroke="none"/>
      <rect x="0.5" y="0.5" width="16" height="16" rx="0.5" fill="none"/>
    </g>
    <g id="타원_572" data-name="타원 572" transform="translate(2463 -753)" fill="none" stroke="#222" stroke-width="1">
      <circle cx="5.5" cy="5.5" r="5.5" stroke="none"/>
      <circle cx="5.5" cy="5.5" r="5" fill="none"/>
    </g>
    <circle id="타원_573" data-name="타원 573" cx="1" cy="1" r="1" transform="translate(2462 -754)" fill="#222"/>
    <path id="패스_508" data-name="패스 508" d="M2464.948-748a6.316,6.316,0,0,1,4.158,2.995" transform="matrix(0.966, 0.259, -0.259, 0.966, -109.372, -664.243)" fill="none" stroke="#222" stroke-width="1"/>
    <path id="패스_509" data-name="패스 509" d="M2464.948-748a6.316,6.316,0,0,1,4.158,2.995" transform="matrix(-0.966, -0.259, 0.259, -0.966, 5046.427, -830.762)" fill="none" stroke="#222" stroke-width="1"/>
  </g>
</svg>
