<?xml version="1.0" encoding="iso-8859-1"?>
<!-- Generator: Adobe Illustrator 19.0.0, SVG Export Plug-In . SVG Version: 6.00 Build 0)  -->
<svg version="1.1" id="Layer_1" xmlns="http://www.w3.org/2000/svg" xmlns:xlink="http://www.w3.org/1999/xlink" x="0px" y="0px"
	 viewBox="0 0 512 512" style="enable-background:new 0 0 512 512;" xml:space="preserve">
<g>
	<g>
		<path d="M508.622,26.93c-2.142-1.8-4.972-2.565-7.728-2.083L414.299,39.92L220.344,23.371c-5.206-0.45-9.809,3.424-10.253,8.641
			c-0.446,5.218,3.424,9.808,8.641,10.253l186.501,15.913v171.604l-267.937,22.85c-3.21,0.271-6.391,0.408-9.455,0.408
			c-5.583,0-11.209-0.435-16.724-1.291c-20.764-3.229-40.059-12.394-55.811-26.513c-23.094-20.644-36.342-50.263-36.342-81.263
			c0-31,13.248-60.619,36.352-81.27c22.604-20.246,51.716-29.972,81.973-27.389l52.014,4.439c5.214,0.443,9.809-3.424,10.253-8.641
			c0.446-5.218-3.424-9.808-8.641-10.253l-52.013-4.439c-35.528-3.033-69.7,8.386-96.232,32.151C15.553,72.811,0,107.583,0,143.975
			s15.553,71.165,42.661,95.395c16.644,14.919,36.689,25.112,58.332,29.766l20.86,192.667c2.105,19.529,18.506,34.256,38.152,34.256
			h57.538c10.879,0,21.289-4.642,28.557-12.739c7.273-8.1,10.774-18.956,9.606-29.789l-6.342-58.554
			c-0.564-5.206-5.244-8.978-10.448-8.406c-5.206,0.564-8.97,5.242-8.405,10.448l6.34,58.552c0.602,5.564-1.126,10.919-4.862,15.08
			c-3.731,4.156-8.861,6.444-14.447,6.444h-57.538c-9.936,0-18.232-7.448-19.298-17.329l-20.356-188.003
			c2.498,0.147,4.998,0.244,7.491,0.244c3.596,0,7.312-0.161,11.06-0.477l77.303-6.593l9.976,92.113
			c0.526,4.86,4.636,8.462,9.415,8.462c0.341,0,0.685-0.018,1.032-0.056c5.206-0.564,8.97-5.242,8.405-10.448l-9.93-91.683
			l179.195-15.281l86.594,15.074c0.541,0.095,1.085,0.14,1.626,0.14c2.215,0,4.381-0.778,6.103-2.225
			c2.142-1.802,3.379-4.458,3.379-7.257V34.187C512,31.387,510.764,28.731,508.622,26.93z M493.036,242.501l-68.839-11.984V57.445
			l68.839-11.984V242.501z"/>
	</g>
</g>
<g>
	<g>
		<path d="M203.126,348.877l-4.269-32.475c-0.761-5.898-3.642-11.319-8.157-15.296c-4.486-3.91-10.223-6.063-16.156-6.063
			c-7.055,0-13.772,3.042-18.427,8.345c-4.66,5.307-6.808,12.367-5.891,19.377l4.273,32.494
			c1.603,12.16,12.052,21.328,24.307,21.328c7.068,0,13.793-3.047,18.452-8.361C201.91,362.921,204.048,355.866,203.126,348.877z
			 M182.995,355.725c-0.621,0.709-1.992,1.898-4.191,1.898c-2.774,0-5.14-2.081-5.505-4.84l-4.272-32.483
			c-0.284-2.178,0.718-3.693,1.341-4.402c0.62-0.707,1.987-1.893,4.176-1.893c1.731,0,2.965,0.759,3.658,1.362
			c1.019,0.898,1.674,2.123,1.848,3.478l4.274,32.508C184.609,353.515,183.614,355.02,182.995,355.725z"/>
	</g>
</g>
<g>
</g>
<g>
</g>
<g>
</g>
<g>
</g>
<g>
</g>
<g>
</g>
<g>
</g>
<g>
</g>
<g>
</g>
<g>
</g>
<g>
</g>
<g>
</g>
<g>
</g>
<g>
</g>
<g>
</g>
</svg>
