<?xml version="1.0" encoding="iso-8859-1"?>
<!-- Generator: Adobe Illustrator 19.0.0, SVG Export Plug-In . SVG Version: 6.00 Build 0)  -->
<svg version="1.1" id="Capa_1" xmlns="http://www.w3.org/2000/svg" xmlns:xlink="http://www.w3.org/1999/xlink" x="0px" y="0px"
	 viewBox="0 0 512 512" style="enable-background:new 0 0 512 512;" xml:space="preserve">
<g>
	<g>
		<path d="M511.906,414.594l-38.969-292.229c-2.813-21.115-20.99-37.031-42.292-37.031H181.333c-5.896,0-10.667,4.771-10.667,10.667
			s4.771,10.667,10.667,10.667h249.313c10.646,0,19.74,7.958,21.146,18.51l14.604,109.49H181.333C81.344,234.667,0,316.01,0,416
			c0,5.896,4.771,10.667,10.667,10.667h490.667c3.073,0,6-1.323,8.021-3.635C511.385,420.708,512.313,417.635,511.906,414.594z
			 M21.688,405.333C27.198,322.062,96.698,256,181.333,256H469.24l19.906,149.333H21.688z"/>
	</g>
</g>
<g>
</g>
<g>
</g>
<g>
</g>
<g>
</g>
<g>
</g>
<g>
</g>
<g>
</g>
<g>
</g>
<g>
</g>
<g>
</g>
<g>
</g>
<g>
</g>
<g>
</g>
<g>
</g>
<g>
</g>
</svg>
