<svg xmlns="http://www.w3.org/2000/svg" width="24" height="24" viewBox="0 0 24 24">
  <g id="그룹_4" data-name="그룹 4" transform="translate(-124 -697)">
    <g id="타원_1" data-name="타원 1" transform="translate(125 698)" fill="none" stroke="#717171" stroke-width="1">
      <circle cx="11" cy="11" r="11" stroke="none"/>
      <circle cx="11" cy="11" r="10.5" fill="none"/>
    </g>
    <g id="user" transform="translate(130 703.802)">
      <g id="그룹_1" data-name="그룹 1" transform="translate(0)">
        <path id="패스_1" data-name="패스 1" d="M11.02,8.966A6.384,6.384,0,0,0,8.567,7.313a4.1,4.1,0,0,0,1.62-3.3A3.883,3.883,0,0,0,6.455,0,3.883,3.883,0,0,0,2.723,4.009a4.1,4.1,0,0,0,1.62,3.3A6.384,6.384,0,0,0,1.891,8.966,7.158,7.158,0,0,0,0,13.87H1.009A5.666,5.666,0,0,1,6.455,8.019,5.666,5.666,0,0,1,11.9,13.87H12.91A7.158,7.158,0,0,0,11.02,8.966ZM6.455,6.935A2.833,2.833,0,0,1,3.732,4.009,2.833,2.833,0,0,1,6.455,1.084,2.833,2.833,0,0,1,9.178,4.009,2.833,2.833,0,0,1,6.455,6.935Z" transform="translate(0)" fill="#717171"/>
      </g>
    </g>
    <rect id="사각형_3" data-name="사각형 3" width="24" height="24" transform="translate(124 697)" fill="none"/>
  </g>
</svg>
