<svg xmlns="http://www.w3.org/2000/svg" width="24" height="24" viewBox="0 0 24 24">
  <g id="그룹_3" data-name="그룹 3" transform="translate(-158 -664)">
    <rect id="사각형_2" data-name="사각형 2" width="24" height="24" transform="translate(158 664)" fill="none"/>
    <path id="_001-heart" data-name="001-heart" d="M10.961,19.5a1.285,1.285,0,0,1-.847-.318c-.886-.774-1.739-1.5-2.493-2.144l0,0a46.358,46.358,0,0,1-5.443-5.108A8.159,8.159,0,0,1,0,6.588,6.852,6.852,0,0,1,1.739,1.909,5.9,5.9,0,0,1,6.124,0,5.514,5.514,0,0,1,9.568,1.189a7.047,7.047,0,0,1,1.393,1.454,7.048,7.048,0,0,1,1.393-1.454A5.514,5.514,0,0,1,15.8,0a5.9,5.9,0,0,1,4.385,1.909,6.852,6.852,0,0,1,1.739,4.679,8.158,8.158,0,0,1-2.174,5.341,46.353,46.353,0,0,1-5.442,5.108c-.755.643-1.61,1.372-2.5,2.148a1.286,1.286,0,0,1-.847.318ZM6.124,1.284A4.625,4.625,0,0,0,2.683,2.779a5.574,5.574,0,0,0-1.4,3.809A6.865,6.865,0,0,0,3.163,11.11,45.62,45.62,0,0,0,8.45,16.06l0,0c.756.644,1.613,1.375,2.505,2.155.9-.782,1.756-1.513,2.514-2.159a45.631,45.631,0,0,0,5.286-4.95,6.866,6.866,0,0,0,1.879-4.522,5.574,5.574,0,0,0-1.4-3.809A4.624,4.624,0,0,0,15.8,1.284a4.259,4.259,0,0,0-2.659.921,6.231,6.231,0,0,0-1.482,1.715.811.811,0,0,1-1.393,0A6.225,6.225,0,0,0,8.783,2.2a4.259,4.259,0,0,0-2.659-.921Zm0,0" transform="translate(159 666)" fill="#ff385c"/>
  </g>
</svg>
