<?xml version="1.0"?>
<svg xmlns="http://www.w3.org/2000/svg" width="512" height="512" viewBox="0 0 128 128"><g><path d="M31.42,85.525a1.75,1.75,0,0,0-1.75,1.75v9a1.75,1.75,0,0,0,3.5,0v-9A1.75,1.75,0,0,0,31.42,85.525Z"/><path d="M74.191,10.25H36.41a8.878,8.878,0,0,0-5.617,15.755l6.977,5.7V36h-1.5a1.75,1.75,0,0,0-1.75,1.75v5.11H31.06a1.75,1.75,0,0,0-1.75,1.75V55.532l-2.248,5.975A53.319,53.319,0,0,0,23.67,80.26V121.5a1.75,1.75,0,0,0,1.75,1.75H70.58a1.75,1.75,0,0,0,1.75-1.75V91.87a53.978,53.978,0,0,0-1.224-11.378l0-.025,0-.012a53.473,53.473,0,0,0-13.389-25.3V44.61a1.75,1.75,0,0,0-1.75-1.75H52.5V37.75A1.75,1.75,0,0,0,50.75,36h-1.5V31.514l6.5-7.792,12.267-3.545h6.173a1.749,1.749,0,0,0,1.75-1.75V12A1.75,1.75,0,0,0,74.191,10.25ZM27.17,119.75V80.26a49.843,49.843,0,0,1,3.168-17.524L32.271,57.6H55.213A49.952,49.952,0,0,1,67.138,79.08H43.51a1.75,1.75,0,0,0-1.75,1.75v30a1.75,1.75,0,0,0,1.75,1.75H68.83v7.17ZM67.941,82.58a50.353,50.353,0,0,1,.889,9.29v17.21H45.26V82.58ZM54.21,54.1H32.81V46.36h21.4ZM38.02,42.86V39.5H49v3.36ZM66.01,17.114,54.264,20.509a1.748,1.748,0,0,0-.858.56l-7.25,8.69a1.75,1.75,0,0,0-.406,1.121V36H41.27V30.88a1.749,1.749,0,0,0-.643-1.355l-7.622-6.233a5.378,5.378,0,0,1,3.4-9.542h29.6Zm6.431-.437H69.515V13.75h2.926Z"/><path d="M83.915,11.382a1.705,1.705,0,0,0,.274-.022l5.43-.855a1.75,1.75,0,0,0-.545-3.457L83.645,7.9a1.75,1.75,0,0,0,.27,3.479Z"/><path d="M96.44,9.41a1.727,1.727,0,0,0,.275-.022l7.365-1.159a1.75,1.75,0,0,0-.545-3.458L96.17,5.931a1.75,1.75,0,0,0,.27,3.479Z"/><path d="M89.619,19.922l-5.43-.855a1.75,1.75,0,1,0-.544,3.457l5.429.855a1.727,1.727,0,0,0,.275.022,1.75,1.75,0,0,0,.27-3.479Z"/><path d="M104.08,22.2l-7.365-1.16A1.75,1.75,0,0,0,96.17,24.5l7.365,1.16a1.852,1.852,0,0,0,.275.022,1.75,1.75,0,0,0,.27-3.479Z"/><path d="M87.919,13.463a1.75,1.75,0,1,0,0,3.5h8.894a1.75,1.75,0,0,0,0-3.5Z"/></g></svg>
