<svg xmlns="http://www.w3.org/2000/svg" width="24" height="24" viewBox="0 0 24 24">
  <g id="그룹_9" data-name="그룹 9" transform="translate(-376 -545)">
    <rect id="사각형_8" data-name="사각형 8" width="24" height="24" transform="translate(376 545)" fill="none"/>
    <path id="star" d="M18.389,7.172a.979.979,0,0,0-.843-.673l-5.322-.483-2.1-4.925a.98.98,0,0,0-1.8,0l-2.1,4.925L.891,6.5A.981.981,0,0,0,.334,8.214l4.023,3.528L3.171,16.966a.98.98,0,0,0,1.458,1.06l4.589-2.744,4.589,2.744a.981.981,0,0,0,1.459-1.06L14.08,11.742,18.1,8.214a.981.981,0,0,0,.286-1.042ZM9.307,15.229" transform="translate(378.778 547.992)" fill="#ff385c"/>
  </g>
</svg>
