<svg xmlns="http://www.w3.org/2000/svg" width="24" height="24" viewBox="0 0 24 24">
  <g id="그룹_27" data-name="그룹 27" transform="translate(-1011 -420)">
    <rect id="사각형_9" data-name="사각형 9" width="24" height="24" transform="translate(1011 420)" fill="none"/>
    <g id="_002-price-tag" data-name="002-price-tag" transform="translate(1014.341 422.917)">
      <g id="그룹_23" data-name="그룹 23">
        <g id="그룹_22" data-name="그룹 22">
          <path id="패스_9" data-name="패스 9" d="M16.138,0H11.377A3.356,3.356,0,0,0,8.989.989L.64,9.338a2.187,2.187,0,0,0,0,3.093l4.944,4.944a2.187,2.187,0,0,0,3.093,0l8.348-8.348a3.356,3.356,0,0,0,.989-2.388V1.877A1.879,1.879,0,0,0,16.138,0Zm1.126,6.638A2.609,2.609,0,0,1,16.5,8.495L8.147,16.844a1.472,1.472,0,0,1-2.03,0L1.171,11.9a1.436,1.436,0,0,1,0-2.03L9.519,1.52A2.611,2.611,0,0,1,11.377.751h4.761a1.127,1.127,0,0,1,1.126,1.126V6.638Z" fill="#222"/>
        </g>
      </g>
      <g id="그룹_25" data-name="그룹 25" transform="translate(12.01 2.252)">
        <g id="그룹_24" data-name="그룹 24">
          <path id="패스_10" data-name="패스 10" d="M343.211,64a1.877,1.877,0,1,0,1.877,1.877A1.879,1.879,0,0,0,343.211,64Zm0,3a1.126,1.126,0,1,1,1.126-1.126A1.127,1.127,0,0,1,343.211,67Z" transform="translate(-341.334 -64)" fill="#222"/>
        </g>
      </g>
    </g>
  </g>
</svg>
