<?xml version="1.0" encoding="iso-8859-1"?>
<!-- Generator: Adobe Illustrator 19.0.0, SVG Export Plug-In . SVG Version: 6.00 Build 0)  -->
<svg version="1.1" id="Capa_1" xmlns="http://www.w3.org/2000/svg" xmlns:xlink="http://www.w3.org/1999/xlink" x="0px" y="0px"
	 viewBox="0 0 480 480" style="enable-background:new 0 0 480 480;" xml:space="preserve">
<g>
	<g>
		<path d="M168,48c4.418,0,8-3.582,8-8s-3.582-8-8-8h-40v-8h40c4.418,0,8-3.582,8-8s-3.582-8-8-8h-40c0-4.418-3.582-8-8-8H88
			c-4.418,0-8,3.582-8,8v128c0.003,0.777,0.116,1.55,0.336,2.296L104,217.168V472c0,4.418,3.582,8,8,8h32c4.418,0,8-3.582,8-8V216
			c-0.003-0.777-0.116-1.55-0.336-2.296L128,134.832V120h40c4.418,0,8-3.582,8-8s-3.582-8-8-8h-40v-8h40c4.418,0,8-3.582,8-8
			s-3.582-8-8-8h-40v-8h40c4.418,0,8-3.582,8-8s-3.582-8-8-8h-40v-8H168z M136,217.168V464h-16V216
			c-0.003-0.777-0.116-1.55-0.336-2.296L96,134.832V16h16v120c0.003,0.777,0.116,1.55,0.336,2.296L136,217.168z"/>
	</g>
</g>
<g>
	<g>
		<path d="M399.656,416L384.328,63.304c-0.373-8.564-7.428-15.312-16-15.304H360V8c0-4.418-3.582-8-8-8h-80c-4.418,0-8,3.582-8,8v40
			h-0.68c-12.871-0.041-23.471,10.1-24,22.96L224.344,416H224v64h176v-64H399.656z M280,16h64v32h-64V16z M255.328,71.648
			c0.189-4.28,3.716-7.652,8-7.648h105.016l15.304,352H240.352L255.328,71.648z M384,464H240v-32h144V464z"/>
	</g>
</g>
<g>
</g>
<g>
</g>
<g>
</g>
<g>
</g>
<g>
</g>
<g>
</g>
<g>
</g>
<g>
</g>
<g>
</g>
<g>
</g>
<g>
</g>
<g>
</g>
<g>
</g>
<g>
</g>
<g>
</g>
</svg>
