<svg xmlns="http://www.w3.org/2000/svg" width="36" height="36" viewBox="0 0 36 36">
  <g id="그룹_31" data-name="그룹 31" transform="translate(-452 -453.323)">
    <path id="패스_2" data-name="패스 2" d="M665.891,663.768a3.445,3.445,0,1,1-3.445-3.445,3.445,3.445,0,0,1,3.445,3.445Zm0,0" transform="translate(-192.446 -192.445)"/>
    <path id="패스_3" data-name="패스 3" d="M604.015,591.189a3.422,3.422,0,0,0-1.962-1.962,5.718,5.718,0,0,0-1.919-.356c-1.09-.05-1.417-.06-4.177-.06s-3.087.011-4.177.06a5.724,5.724,0,0,0-1.919.356,3.424,3.424,0,0,0-1.962,1.962,5.719,5.719,0,0,0-.355,1.919c-.05,1.09-.061,1.417-.061,4.177s.011,3.087.061,4.177a5.717,5.717,0,0,0,.355,1.919,3.425,3.425,0,0,0,1.962,1.962,5.715,5.715,0,0,0,1.919.356c1.09.05,1.416.06,4.176.06s3.087-.011,4.177-.06a5.713,5.713,0,0,0,1.919-.356,3.424,3.424,0,0,0,1.962-1.962,5.727,5.727,0,0,0,.356-1.919c.05-1.09.06-1.417.06-4.177s-.01-3.087-.06-4.177a5.712,5.712,0,0,0-.356-1.919Zm-8.057,11.4a5.307,5.307,0,1,1,5.307-5.308,5.308,5.308,0,0,1-5.307,5.308Zm5.517-9.584a1.24,1.24,0,1,1,1.24-1.24,1.24,1.24,0,0,1-1.24,1.24Zm0,0" transform="translate(-125.958 -125.962)"/>
    <path id="패스_4" data-name="패스 4" d="M470,453.323a18,18,0,1,0,18,18,18,18,0,0,0-18-18Zm10.274,22.261a7.587,7.587,0,0,1-.48,2.509,5.285,5.285,0,0,1-3.023,3.023,7.584,7.584,0,0,1-2.509.48c-1.1.05-1.454.062-4.261.062s-3.159-.012-4.262-.062a7.584,7.584,0,0,1-2.509-.48,5.286,5.286,0,0,1-3.023-3.023,7.585,7.585,0,0,1-.48-2.509c-.051-1.1-.063-1.454-.063-4.261s.012-3.159.062-4.261a7.586,7.586,0,0,1,.48-2.509,5.289,5.289,0,0,1,3.023-3.023,7.592,7.592,0,0,1,2.509-.48c1.1-.05,1.454-.062,4.261-.062s3.159.012,4.261.063a7.592,7.592,0,0,1,2.509.48,5.286,5.286,0,0,1,3.023,3.023,7.586,7.586,0,0,1,.481,2.509c.05,1.1.062,1.454.062,4.261s-.012,3.159-.062,4.261Zm0,0" transform="translate(0 0)"/>
  </g>
</svg>
